<svg width="347" height="116" viewBox="0 0 347 116" fill="none" xmlns="http://www.w3.org/2000/svg">
<rect width="347" height="116" fill="white"/>
<rect x="40" y="32" width="10" height="50" fill="black"/>
<path d="M69.7937 53.898V66.414C69.7937 67.814 70.4237 68.514 71.6837 68.514C71.8797 68.514 72.1457 68.472 72.4817 68.388C72.8177 68.276 73.0837 68.22 73.2797 68.22C73.6437 68.22 73.9517 68.374 74.2037 68.682C74.4557 68.99 74.5817 69.382 74.5817 69.858C74.5817 70.446 74.2457 70.95 73.5737 71.37C72.9017 71.79 72.1457 72 71.3057 72C70.3817 72 69.5277 71.902 68.7437 71.706C67.9877 71.51 67.3017 71.02 66.6857 70.236C66.0977 69.424 65.8037 68.206 65.8037 66.582V53.898H63.3677C62.8357 53.898 62.3877 53.73 62.0237 53.394C61.6877 53.03 61.5197 52.582 61.5197 52.05C61.5197 51.518 61.6877 51.084 62.0237 50.748C62.3877 50.412 62.8357 50.244 63.3677 50.244H65.8037V46.716C65.8037 46.156 65.9857 45.68 66.3497 45.288C66.7417 44.896 67.2317 44.7 67.8197 44.7C68.3797 44.7 68.8417 44.896 69.2057 45.288C69.5977 45.68 69.7937 46.156 69.7937 46.716V50.244H73.2797C73.8117 50.244 74.2457 50.426 74.5817 50.79C74.9457 51.126 75.1277 51.56 75.1277 52.092C75.1277 52.624 74.9457 53.058 74.5817 53.394C74.2457 53.73 73.8117 53.898 73.2797 53.898H69.7937ZM90.7467 49.488C91.4747 49.488 92.1047 49.684 92.6367 50.076C93.1687 50.44 93.4347 50.902 93.4347 51.462C93.4347 52.134 93.2527 52.652 92.8887 53.016C92.5527 53.352 92.1327 53.52 91.6287 53.52C91.3767 53.52 90.9987 53.436 90.4947 53.268C89.9067 53.072 89.4447 52.974 89.1087 52.974C88.2407 52.974 87.3867 53.282 86.5467 53.898C85.7347 54.486 85.0627 55.312 84.5307 56.376C84.0267 57.412 83.7747 58.574 83.7747 59.862V69.984C83.7747 70.544 83.5787 71.02 83.1867 71.412C82.8227 71.804 82.3467 72 81.7587 72C81.1707 72 80.6947 71.818 80.3307 71.454C79.9667 71.062 79.7847 70.572 79.7847 69.984V52.008C79.7847 51.448 79.9667 50.972 80.3307 50.58C80.7227 50.188 81.1987 49.992 81.7587 49.992C82.3467 49.992 82.8227 50.188 83.1867 50.58C83.5787 50.972 83.7747 51.448 83.7747 52.008V54.15C84.3907 52.778 85.3147 51.672 86.5467 50.832C87.7787 49.964 89.1787 49.516 90.7467 49.488ZM114.492 49.698C115.08 49.698 115.556 49.894 115.92 50.286C116.312 50.65 116.508 51.14 116.508 51.756V69.984C116.508 70.544 116.312 71.02 115.92 71.412C115.556 71.804 115.08 72 114.492 72C113.904 72 113.428 71.818 113.064 71.454C112.7 71.062 112.518 70.572 112.518 69.984V68.892C111.79 69.872 110.796 70.712 109.536 71.412C108.276 72.084 106.918 72.42 105.462 72.42C103.558 72.42 101.822 71.93 100.254 70.95C98.7142 69.97 97.4962 68.612 96.6002 66.876C95.7322 65.112 95.2982 63.138 95.2982 60.954C95.2982 58.77 95.7322 56.81 96.6002 55.074C97.4962 53.31 98.7142 51.938 100.254 50.958C101.794 49.978 103.488 49.488 105.336 49.488C106.82 49.488 108.192 49.796 109.452 50.412C110.74 51.028 111.762 51.812 112.518 52.764V51.756C112.518 51.168 112.7 50.678 113.064 50.286C113.428 49.894 113.904 49.698 114.492 49.698ZM105.924 68.724C107.24 68.724 108.402 68.388 109.41 67.716C110.446 67.044 111.244 66.12 111.804 64.944C112.392 63.768 112.686 62.438 112.686 60.954C112.686 59.498 112.392 58.182 111.804 57.006C111.244 55.83 110.446 54.906 109.41 54.234C108.402 53.534 107.24 53.184 105.924 53.184C104.608 53.184 103.432 53.52 102.396 54.192C101.388 54.864 100.59 55.788 100.002 56.964C99.4422 58.14 99.1622 59.47 99.1622 60.954C99.1622 62.438 99.4422 63.768 100.002 64.944C100.59 66.12 101.388 67.044 102.396 67.716C103.432 68.388 104.608 68.724 105.924 68.724ZM138.749 49.782C139.281 49.782 139.729 49.964 140.093 50.328C140.457 50.664 140.639 51.07 140.639 51.546C140.639 51.798 140.541 52.148 140.345 52.596L132.365 70.74C132.197 71.104 131.959 71.398 131.651 71.622C131.343 71.846 131.007 71.972 130.643 72C130.195 72.056 129.775 71.972 129.383 71.748C129.019 71.524 128.739 71.188 128.543 70.74L120.563 52.596C120.423 52.176 120.353 51.826 120.353 51.546C120.353 51.098 120.535 50.692 120.899 50.328C121.263 49.964 121.739 49.782 122.327 49.782C122.747 49.782 123.125 49.894 123.461 50.118C123.797 50.314 124.063 50.622 124.259 51.042L130.601 65.784L136.943 51.042C137.335 50.202 137.937 49.782 138.749 49.782ZM164.073 60.156C164.045 60.66 163.835 61.094 163.443 61.458C163.051 61.794 162.589 61.962 162.057 61.962H147.273C147.469 64.006 148.239 65.644 149.583 66.876C150.955 68.108 152.621 68.724 154.581 68.724C155.925 68.724 157.017 68.528 157.857 68.136C158.697 67.744 159.439 67.24 160.083 66.624C160.503 66.372 160.909 66.246 161.301 66.246C161.777 66.246 162.169 66.414 162.477 66.75C162.813 67.086 162.981 67.478 162.981 67.926C162.981 68.514 162.701 69.046 162.141 69.522C161.329 70.334 160.251 71.02 158.907 71.58C157.563 72.14 156.191 72.42 154.791 72.42C152.523 72.42 150.521 71.944 148.785 70.992C147.077 70.04 145.747 68.71 144.795 67.002C143.871 65.294 143.409 63.362 143.409 61.206C143.409 58.854 143.885 56.796 144.837 55.032C145.817 53.24 147.091 51.868 148.659 50.916C150.255 49.964 151.963 49.488 153.783 49.488C155.575 49.488 157.255 49.95 158.823 50.874C160.391 51.798 161.651 53.072 162.603 54.696C163.555 56.32 164.045 58.14 164.073 60.156ZM153.783 53.184C152.215 53.184 150.857 53.632 149.709 54.528C148.561 55.396 147.805 56.754 147.441 58.602H159.831V58.266C159.691 56.782 159.019 55.564 157.815 54.612C156.639 53.66 155.295 53.184 153.783 53.184ZM173.033 69.984C173.033 70.544 172.837 71.02 172.445 71.412C172.053 71.804 171.577 72 171.017 72C170.457 72 169.981 71.804 169.589 71.412C169.225 71.02 169.043 70.544 169.043 69.984V42.936C169.043 42.376 169.239 41.9 169.631 41.508C170.023 41.116 170.499 40.92 171.059 40.92C171.619 40.92 172.081 41.116 172.445 41.508C172.837 41.9 173.033 42.376 173.033 42.936V69.984ZM183.11 69.984C183.11 70.544 182.914 71.02 182.522 71.412C182.158 71.804 181.682 72 181.094 72C180.534 72 180.058 71.804 179.666 71.412C179.302 71.02 179.12 70.544 179.12 69.984V51.798C179.12 51.238 179.302 50.762 179.666 50.37C180.058 49.978 180.534 49.782 181.094 49.782C181.682 49.782 182.158 49.978 182.522 50.37C182.914 50.762 183.11 51.238 183.11 51.798V69.984ZM181.094 47.01C180.282 47.01 179.694 46.87 179.33 46.59C178.994 46.282 178.826 45.806 178.826 45.162V44.49C178.826 43.818 179.008 43.342 179.372 43.062C179.764 42.782 180.352 42.642 181.136 42.642C181.92 42.642 182.48 42.796 182.816 43.104C183.18 43.384 183.362 43.846 183.362 44.49V45.162C183.362 45.834 183.18 46.31 182.816 46.59C182.452 46.87 181.878 47.01 181.094 47.01ZM200.059 49.488C205.099 49.488 207.619 52.512 207.619 58.56V69.984C207.619 70.544 207.423 71.02 207.031 71.412C206.667 71.804 206.191 72 205.603 72C205.043 72 204.567 71.804 204.175 71.412C203.811 71.02 203.629 70.544 203.629 69.984V58.602C203.629 56.95 203.251 55.634 202.495 54.654C201.739 53.674 200.507 53.184 198.799 53.184C197.679 53.184 196.657 53.436 195.733 53.94C194.837 54.416 194.123 55.074 193.591 55.914C193.087 56.726 192.835 57.622 192.835 58.602V69.984C192.835 70.544 192.639 71.02 192.247 71.412C191.883 71.804 191.407 72 190.819 72C190.231 72 189.755 71.818 189.391 71.454C189.027 71.062 188.845 70.572 188.845 69.984V52.008C188.845 51.448 189.027 50.972 189.391 50.58C189.783 50.188 190.259 49.992 190.819 49.992C191.407 49.992 191.883 50.188 192.247 50.58C192.639 50.972 192.835 51.448 192.835 52.008V53.478C193.563 52.358 194.571 51.42 195.859 50.664C197.175 49.88 198.575 49.488 200.059 49.488ZM231.974 49.698C232.562 49.698 233.038 49.894 233.402 50.286C233.794 50.65 233.99 51.14 233.99 51.756V70.236C233.99 72.504 233.5 74.394 232.52 75.906C231.568 77.446 230.266 78.58 228.614 79.308C226.962 80.036 225.1 80.4 223.028 80.4C221.908 80.4 220.592 80.204 219.08 79.812C217.596 79.42 216.644 79.014 216.224 78.594C215.356 78.146 214.922 77.586 214.922 76.914C214.922 76.746 214.978 76.522 215.09 76.242C215.398 75.542 215.916 75.192 216.644 75.192C217.008 75.192 217.4 75.276 217.82 75.444C220.06 76.312 221.81 76.746 223.07 76.746C225.31 76.746 227.018 76.2 228.194 75.108C229.398 74.044 230 72.574 230 70.698V68.43C229.412 69.522 228.418 70.46 227.018 71.244C225.646 72.028 224.19 72.42 222.65 72.42C220.718 72.42 218.954 71.93 217.358 70.95C215.762 69.97 214.502 68.612 213.578 66.876C212.682 65.112 212.234 63.138 212.234 60.954C212.234 58.77 212.682 56.81 213.578 55.074C214.502 53.31 215.748 51.938 217.316 50.958C218.912 49.978 220.662 49.488 222.566 49.488C224.106 49.488 225.534 49.838 226.85 50.538C228.194 51.238 229.244 52.092 230 53.1V51.756C230 51.168 230.182 50.678 230.546 50.286C230.91 49.894 231.386 49.698 231.974 49.698ZM223.112 68.724C224.484 68.724 225.702 68.402 226.766 67.758C227.83 67.086 228.656 66.162 229.244 64.986C229.86 63.782 230.168 62.438 230.168 60.954C230.168 59.47 229.86 58.14 229.244 56.964C228.656 55.788 227.83 54.864 226.766 54.192C225.702 53.52 224.484 53.184 223.112 53.184C221.768 53.184 220.564 53.52 219.5 54.192C218.436 54.864 217.596 55.802 216.98 57.006C216.392 58.182 216.098 59.498 216.098 60.954C216.098 62.41 216.392 63.74 216.98 64.944C217.596 66.12 218.436 67.044 219.5 67.716C220.564 68.388 221.768 68.724 223.112 68.724Z" fill="#00264D"/>
<path d="M250.956 49.488C252.86 49.488 254.582 49.978 256.122 50.958C257.662 51.938 258.866 53.296 259.734 55.032C260.63 56.768 261.078 58.728 261.078 60.912C261.078 63.096 260.63 65.07 259.734 66.834C258.866 68.598 257.662 69.97 256.122 70.95C254.582 71.93 252.888 72.42 251.04 72.42C249.584 72.42 248.226 72.098 246.966 71.454C245.706 70.81 244.684 70.012 243.9 69.06V70.278C243.9 70.838 243.704 71.314 243.312 71.706C242.948 72.098 242.472 72.294 241.884 72.294C241.324 72.294 240.848 72.112 240.456 71.748C240.092 71.356 239.91 70.866 239.91 70.278V42.936C239.91 42.348 240.092 41.872 240.456 41.508C240.82 41.116 241.296 40.92 241.884 40.92C242.472 40.92 242.948 41.116 243.312 41.508C243.704 41.9 243.9 42.376 243.9 42.936V53.184C244.572 52.176 245.552 51.308 246.84 50.58C248.128 49.852 249.5 49.488 250.956 49.488ZM250.494 68.724C251.782 68.724 252.944 68.388 253.98 67.716C255.016 67.016 255.814 66.078 256.374 64.902C256.962 63.698 257.256 62.368 257.256 60.912C257.256 59.456 256.962 58.14 256.374 56.964C255.814 55.788 255.016 54.864 253.98 54.192C252.944 53.52 251.782 53.184 250.494 53.184C249.178 53.184 248.002 53.52 246.966 54.192C245.93 54.864 245.118 55.788 244.53 56.964C243.97 58.112 243.69 59.428 243.69 60.912C243.69 62.396 243.97 63.726 244.53 64.902C245.118 66.078 245.93 67.016 246.966 67.716C248.002 68.388 249.178 68.724 250.494 68.724ZM286.541 60.996C286.541 63.18 286.051 65.14 285.071 66.876C284.091 68.612 282.747 69.97 281.039 70.95C279.359 71.93 277.497 72.42 275.453 72.42C273.409 72.42 271.533 71.93 269.825 70.95C268.145 69.97 266.815 68.612 265.835 66.876C264.855 65.14 264.365 63.18 264.365 60.996C264.365 58.812 264.855 56.838 265.835 55.074C266.815 53.31 268.145 51.938 269.825 50.958C271.533 49.978 273.409 49.488 275.453 49.488C277.497 49.488 279.359 49.978 281.039 50.958C282.747 51.938 284.091 53.31 285.071 55.074C286.051 56.838 286.541 58.812 286.541 60.996ZM282.551 60.996C282.551 59.484 282.229 58.14 281.585 56.964C280.969 55.76 280.115 54.836 279.023 54.192C277.959 53.52 276.769 53.184 275.453 53.184C274.137 53.184 272.933 53.52 271.841 54.192C270.777 54.836 269.923 55.76 269.279 56.964C268.663 58.14 268.355 59.484 268.355 60.996C268.355 62.48 268.663 63.81 269.279 64.986C269.923 66.162 270.777 67.086 271.841 67.758C272.933 68.402 274.137 68.724 275.453 68.724C276.769 68.724 277.959 68.402 279.023 67.758C280.115 67.086 280.969 66.162 281.585 64.986C282.229 63.81 282.551 62.48 282.551 60.996ZM297.143 53.898V66.414C297.143 67.814 297.773 68.514 299.033 68.514C299.229 68.514 299.495 68.472 299.831 68.388C300.167 68.276 300.433 68.22 300.629 68.22C300.993 68.22 301.301 68.374 301.553 68.682C301.805 68.99 301.931 69.382 301.931 69.858C301.931 70.446 301.595 70.95 300.923 71.37C300.251 71.79 299.495 72 298.655 72C297.731 72 296.877 71.902 296.093 71.706C295.337 71.51 294.651 71.02 294.035 70.236C293.447 69.424 293.153 68.206 293.153 66.582V53.898H290.717C290.185 53.898 289.737 53.73 289.373 53.394C289.037 53.03 288.869 52.582 288.869 52.05C288.869 51.518 289.037 51.084 289.373 50.748C289.737 50.412 290.185 50.244 290.717 50.244H293.153V46.716C293.153 46.156 293.335 45.68 293.699 45.288C294.091 44.896 294.581 44.7 295.169 44.7C295.729 44.7 296.191 44.896 296.555 45.288C296.947 45.68 297.143 46.156 297.143 46.716V50.244H300.629C301.161 50.244 301.595 50.426 301.931 50.79C302.295 51.126 302.477 51.56 302.477 52.092C302.477 52.624 302.295 53.058 301.931 53.394C301.595 53.73 301.161 53.898 300.629 53.898H297.143Z" fill="#0080FF"/>
</svg>
