<svg width="88" height="84" viewBox="0 0 88 84" fill="none" xmlns="http://www.w3.org/2000/svg">
<rect width="88" height="84" fill="transparent"/>
<path fill-rule="evenodd" clip-rule="evenodd" d="M10 42.687C10 59.3421 22.0963 73.1916 37.9167 76V51.8046H29.5417V42.5H37.9167V35.0546C37.9167 26.6796 43.313 22.0287 50.9454 22.0287C53.363 22.0287 55.9704 22.4 58.388 22.7713V31.3333H54.1083C50.013 31.3333 49.0833 33.3796 49.0833 35.987V42.5H58.0167L56.5287 51.8046H49.0833V76C64.9037 73.1916 77 59.3449 77 42.687C77 24.1588 61.925 9 43.5 9C25.075 9 10 24.1588 10 42.687Z" fill="white"/>
</svg>
