<svg width="88" height="84" viewBox="0 0 88 84" fill="none" xmlns="http://www.w3.org/2000/svg">
<rect width="88" height="84" fill="transparent"/>
<path fill-rule="evenodd" clip-rule="evenodd" d="M30.8391 11.976C34.1138 11.8252 35.1578 11.7917 43.4993 11.7917C51.8408 11.7917 52.8849 11.828 56.1568 11.976C59.4286 12.124 61.6619 12.646 63.6161 13.4025C65.6624 14.1758 67.5188 15.3846 69.0543 16.948C70.6176 18.4806 71.8236 20.3342 72.5941 22.3833C73.3534 24.3375 73.8727 26.5708 74.0234 29.8371C74.1742 33.1173 74.2077 34.1614 74.2077 42.5001C74.2077 50.8416 74.1714 51.8857 74.0234 55.1603C73.8755 58.4265 73.3534 60.6599 72.5941 62.614C71.8236 64.6634 70.6156 66.5201 69.0543 68.055C67.5188 69.6183 65.6624 70.8243 63.6161 71.5948C61.6619 72.3542 59.4286 72.8734 56.1623 73.0242C52.8849 73.1749 51.8408 73.2084 43.4993 73.2084C35.1578 73.2084 34.1138 73.1721 30.8391 73.0242C27.5729 72.8762 25.3396 72.3542 23.3854 71.5948C21.3361 70.8242 19.4793 69.6162 17.9444 68.055C16.3822 66.5214 15.1732 64.6656 14.4018 62.6168C13.6453 60.6627 13.126 58.4293 12.9753 55.1631C12.8245 51.8829 12.791 50.8388 12.791 42.5001C12.791 34.1586 12.8273 33.1145 12.9753 29.8427C13.1232 26.5708 13.6453 24.3375 14.4018 22.3833C15.1743 20.3345 16.3842 18.4787 17.9472 16.9452C19.48 15.3832 21.3348 14.1743 23.3826 13.4025C25.3368 12.646 27.5701 12.1267 30.8363 11.976H30.8391ZM55.9083 17.5035C52.67 17.3555 51.6985 17.3248 43.4993 17.3248C35.3002 17.3248 34.3287 17.3555 31.0904 17.5035C28.0949 17.6403 26.4702 18.14 25.387 18.5615C23.9549 19.1199 22.9303 19.7815 21.8556 20.8563C20.8367 21.8475 20.0526 23.0541 19.5608 24.3877C19.1393 25.4709 18.6396 27.0957 18.5028 30.0911C18.3548 33.3295 18.3241 34.301 18.3241 42.5001C18.3241 50.6992 18.3548 51.6707 18.5028 54.909C18.6396 57.9045 19.1393 59.5292 19.5608 60.6124C20.0521 61.944 20.8366 63.1528 21.8556 64.1439C22.8466 65.1628 24.0554 65.9473 25.387 66.4386C26.4702 66.8602 28.0949 67.3599 31.0904 67.4967C34.3287 67.6446 35.2974 67.6753 43.4993 67.6753C51.7013 67.6753 52.67 67.6446 55.9083 67.4967C58.9038 67.3599 60.5285 66.8602 61.6117 66.4386C63.0438 65.8803 64.0683 65.2187 65.1431 64.1439C66.1621 63.1528 66.9466 61.944 67.4379 60.6124C67.8594 59.5292 68.3591 57.9045 68.4959 54.909C68.6439 51.6707 68.6746 50.6992 68.6746 42.5001C68.6746 34.301 68.6439 33.3295 68.4959 30.0911C68.3591 27.0957 67.8594 25.4709 67.4379 24.3877C66.8796 22.9556 66.2179 21.9311 65.1431 20.8563C64.1519 19.8375 62.9453 19.0535 61.6117 18.5615C60.5285 18.14 58.9038 17.6403 55.9083 17.5035V17.5035ZM39.5771 51.9666C41.7676 52.8785 44.2067 53.0015 46.4779 52.3148C48.749 51.6281 50.7113 50.1741 52.0296 48.2013C53.3479 46.2285 53.9403 43.8593 53.7058 41.4982C53.4713 39.1371 52.4243 36.9306 50.7437 35.2557C49.6724 34.185 48.377 33.3652 46.9508 32.8553C45.5246 32.3453 44.003 32.158 42.4957 32.3066C40.9884 32.4553 39.5328 32.9363 38.2337 33.7151C36.9346 34.4938 35.8243 35.5509 34.9828 36.8102C34.1413 38.0696 33.5895 39.4998 33.367 40.9981C33.1446 42.4963 33.2571 44.0251 33.6965 45.4746C34.1359 46.9241 34.8912 48.2582 35.908 49.3808C36.9249 50.5033 38.1779 51.3865 39.5771 51.9666ZM32.3383 31.339C33.804 29.8733 35.544 28.7107 37.459 27.9174C39.374 27.1242 41.4265 26.7159 43.4993 26.7159C45.5721 26.7159 47.6247 27.1242 49.5397 27.9174C51.4547 28.7106 53.1947 29.8733 54.6604 31.339C56.1261 32.8047 57.2888 34.5447 58.082 36.4597C58.8752 38.3748 59.2835 40.4273 59.2835 42.5001C59.2835 44.5729 58.8752 46.6254 58.082 48.5404C57.2888 50.4554 56.1261 52.1955 54.6604 53.6612C51.7003 56.6213 47.6856 58.2842 43.4993 58.2842C39.3131 58.2842 35.2984 56.6213 32.3383 53.6612C29.3782 50.7011 27.7152 46.6863 27.7152 42.5001C27.7152 38.3139 29.3782 34.2991 32.3383 31.339V31.339ZM62.7842 29.0666C63.1474 28.724 63.4382 28.3119 63.6393 27.8549C63.8404 27.3979 63.9478 26.9052 63.955 26.4059C63.9623 25.9067 63.8694 25.411 63.6816 24.9483C63.4939 24.4857 63.2153 24.0653 62.8622 23.7123C62.5092 23.3592 62.0889 23.0806 61.6262 22.8929C61.1635 22.7051 60.6678 22.6122 60.1686 22.6195C59.6693 22.6267 59.1766 22.7341 58.7196 22.9352C58.2626 23.1364 57.8505 23.4271 57.5079 23.7903C56.8416 24.4967 56.4768 25.435 56.4909 26.4059C56.5051 27.3769 56.8971 28.3041 57.5837 28.9908C58.2704 29.6774 59.1976 30.0694 60.1686 30.0836C61.1395 30.0977 62.0778 29.7329 62.7842 29.0666V29.0666Z" fill="white"/>
</svg>
