<svg width="88" height="84" viewBox="0 0 88 84" fill="none" xmlns="http://www.w3.org/2000/svg">
<rect width="88" height="84" fill="transparent"/>
<path d="M76.0028 22.7826C73.6718 23.8155 71.1677 24.5134 68.5351 24.8289C71.2514 23.2035 73.2836 20.6455 74.2524 17.6319C71.7004 19.1478 68.9074 20.2148 65.9947 20.7865C64.036 18.6952 61.4417 17.309 58.6144 16.8432C55.7872 16.3774 52.8853 16.8581 50.3592 18.2105C47.8332 19.563 45.8243 21.7116 44.6445 24.3227C43.4646 26.9339 43.1799 29.8615 43.8344 32.6511C38.6634 32.3915 33.6047 31.0474 28.9868 28.7062C24.3688 26.365 20.2947 23.0789 17.0289 19.0613C15.9122 20.9875 15.2701 23.2209 15.2701 25.5994C15.2689 27.7406 15.7962 29.849 16.8052 31.7375C17.8142 33.626 19.2738 35.2363 21.0544 36.4254C18.9894 36.3597 16.9699 35.8017 15.164 34.7979V34.9654C15.1638 37.9685 16.2026 40.8792 18.1042 43.2036C20.0057 45.528 22.6529 47.1229 25.5965 47.7177C23.6808 48.2362 21.6723 48.3126 19.7228 47.9411C20.5533 50.5251 22.1711 52.7847 24.3496 54.4036C26.5282 56.0225 29.1584 56.9196 31.8722 56.9693C27.2654 60.5857 21.5762 62.5473 15.7196 62.5387C14.6821 62.539 13.6456 62.4784 12.6152 62.3572C18.56 66.1795 25.4802 68.2081 32.5477 68.2002C56.4723 68.2002 69.5513 48.3849 69.5513 31.1994C69.5513 30.6411 69.5373 30.0772 69.5122 29.5189C72.0562 27.6791 74.2522 25.4009 75.9972 22.7909L76.0028 22.7826V22.7826Z" fill="white"/>
</svg>
